HIERARCHY
ROOT root
{
	OFFSET 0.000000 0.000000 0.000000
	CHANNELS 6 Xposition Yposition Zposition Zrotation Yrotation Xrotation
	JOINT lhip
	{
		OFFSET 0.058581 -0.082280 -0.017664
		CHANNELS 3 Zrotation Yrotation Xrotation
		JOINT lknee
		{
			OFFSET 0.043451 -0.386469 0.008037
			CHANNELS 3 Zrotation Yrotation Xrotation
			JOINT lankle
			{
				OFFSET -0.014790 -0.426874 -0.037428
				CHANNELS 3 Zrotation Yrotation Xrotation
				JOINT ltoe
				{
					OFFSET 0.041054 -0.060286 0.122042
					CHANNELS 3 Zrotation Yrotation Xrotation
					End Site
					{
						OFFSET 0.000000 0.000000 0.000000
					}
				}
			}
		}
	}
	JOINT rhip
	{
		OFFSET -0.060310 -0.090513 -0.013543
		CHANNELS 3 Zrotation Yrotation Xrotation
		JOINT rknee
		{
			OFFSET -0.043257 -0.383688 -0.004843
			CHANNELS 3 Zrotation Yrotation Xrotation
			JOINT rankle
			{
				OFFSET 0.019056 -0.420046 -0.034562
				CHANNELS 3 Zrotation Yrotation Xrotation
				JOINT rtoe
				{
					OFFSET -0.034840 -0.062106 0.130323
					CHANNELS 3 Zrotation Yrotation Xrotation
					End Site
					{
						OFFSET 0.000000 0.000000 0.000000
					}
				}
			}
		}
	}
	JOINT lowerback
	{
		OFFSET 0.004439 0.124404 -0.038385
		CHANNELS 3 Zrotation Yrotation Xrotation
		JOINT upperback
		{
			OFFSET 0.004488 0.137956 0.026820
			CHANNELS 3 Zrotation Yrotation Xrotation
			JOINT chest
			{
				OFFSET -0.002265 0.056032 0.002855
				CHANNELS 3 Zrotation Yrotation Xrotation
				JOINT lowerneck
				{
					OFFSET -0.013390 0.211636 -0.033468
					CHANNELS 3 Zrotation Yrotation Xrotation
					JOINT upperneck
					{
						OFFSET 0.010113 0.088937 0.050410
						CHANNELS 3 Zrotation Yrotation Xrotation
						End Site
						{
							OFFSET 0.000000 0.000000 0.000000
						}
					}
				}
				JOINT lclavicle
				{
					OFFSET 0.071702 0.114000 -0.018898
					CHANNELS 3 Zrotation Yrotation Xrotation
					JOINT lshoulder
					{
						OFFSET 0.122921 0.045205 -0.019046
						CHANNELS 3 Zrotation Yrotation Xrotation
						JOINT lelbow
						{
							OFFSET 0.255332 -0.015649 -0.022946
							CHANNELS 3 Zrotation Yrotation Xrotation
							JOINT lwrist
							{
								OFFSET 0.265709 0.012698 -0.007375
								CHANNELS 3 Zrotation Yrotation Xrotation
								End Site
								{
									OFFSET 0.000000 0.000000 0.000000
								}
							}
						}
					}
				}
				JOINT rclavicle
				{
					OFFSET -0.082954 0.112472 -0.023707
					CHANNELS 3 Zrotation Yrotation Xrotation
					JOINT rshoulder
					{
						OFFSET -0.113228 0.046853 -0.008472
						CHANNELS 3 Zrotation Yrotation Xrotation
						JOINT relbow
						{
							OFFSET -0.260127 -0.014369 -0.031269
							CHANNELS 3 Zrotation Yrotation Xrotation
							JOINT rwrist
							{
								OFFSET -0.269108 0.006794 -0.006027
								CHANNELS 3 Zrotation Yrotation Xrotation
								End Site
								{
									OFFSET 0.000000 0.000000 0.000000
								}
							}
						}
					}
				}
			}
		}
	}
}
MOTION
Frames: 10
Frame Time: 0.033333
-0.706625 0.187933 0.990199 85.107554 -1.186567 87.656989 -3.210969 0.032450 2.786330 -0.923096 -6.891470 5.849302 3.958261 11.746211 -14.070745 0.000000 -0.000000 0.000000 5.137620 0.115142 -2.778522 -0.781158 0.451275 15.077181 -0.821753 -8.796431 -15.995179 0.000000 -0.000000 0.000000 1.378444 0.245482 9.221464 0.013468 0.327355 -3.159959 -0.534255 -0.461689 3.257357 0.536562 7.456765 -7.074306 -4.092679 1.430925 9.649213 -28.129205 7.405108 -1.175674 -58.888282 -4.945861 9.518583 10.127205 -28.147936 6.555091 -4.965663 -2.032622 -4.113688 27.888960 0.045727 -0.622446 57.090677 7.103560 14.879336 -12.109070 19.370258 -5.835381 6.672793 1.735771 -7.345410 
-0.706206 0.186455 0.990006 84.982469 -1.348102 87.939757 -3.338420 -0.247319 2.546120 -1.000891 -7.042826 5.668185 4.341042 11.561621 -14.230470 0.000000 -0.000000 0.000000 4.952715 0.326552 -2.998500 -0.553190 0.555478 15.054368 -0.622836 -9.015755 -16.009395 0.000000 -0.000000 0.000000 1.290198 0.257123 9.076659 0.003892 0.507134 -2.986609 -0.492213 -0.412530 3.357536 0.543786 7.583966 -7.173522 -4.264214 1.558640 9.861072 -28.020118 7.327929 -1.021974 -59.081855 -5.132775 9.704428 10.055725 -28.099434 6.779622 -5.112043 -2.303580 -4.454426 27.642647 0.136729 -0.640145 57.387060 7.292183 15.053950 -12.355344 19.441116 -6.034118 6.761368 1.595127 -7.538154 
-0.705572 0.184861 0.989809 84.913801 -1.338017 88.089310 -3.222515 -0.342435 2.152049 -1.058373 -6.702330 6.203426 4.309429 11.429679 -14.425733 0.000000 -0.000000 0.000000 5.026578 0.400736 -3.082796 -0.503784 0.537773 15.014081 -0.632075 -8.997159 -16.033860 0.000000 -0.000000 0.000000 1.333052 0.287308 9.321410 0.019575 0.534498 -3.055089 -0.408781 -0.391377 3.356725 0.425523 7.614789 -7.071531 -4.208025 1.580417 9.761897 -28.007122 7.291040 -0.992601 -59.177093 -5.065266 9.654872 10.070522 -28.179584 6.886912 -5.218831 -2.725554 -4.811077 27.587565 0.204824 -0.534409 57.330759 7.368642 15.060676 -12.411862 19.802332 -5.808555 6.542414 1.251752 -7.429158 
-0.703783 0.183021 0.989614 84.905214 -1.339816 88.188008 -3.135258 -0.411763 1.759274 -1.170641 -6.739236 7.059596 4.385196 11.611998 -14.842018 0.000000 -0.000000 0.000000 5.097847 0.293493 -3.023071 -0.407769 0.625794 14.972188 -0.668051 -8.938966 -16.163435 0.000000 -0.000000 0.000000 1.397603 0.339843 9.420310 0.070124 0.532629 -2.916140 -0.402583 -0.368761 3.434775 0.422333 7.762291 -6.979105 -4.222302 1.771980 9.762275 -28.014458 7.218637 -0.988524 -59.187039 -5.034813 9.696422 10.041751 -28.438811 6.907674 -5.154893 -2.745679 -4.803251 27.641214 0.269334 -0.518483 57.179574 7.474863 15.029203 -12.419360 19.979721 -5.822079 6.544638 1.223744 -7.356196 
-0.702083 0.181882 0.989502 84.803815 -1.388620 88.163457 -3.180445 -0.602147 1.767857 -1.181948 -6.589629 7.423538 4.346643 11.731533 -15.052175 0.000000 -0.000000 0.000000 5.113981 0.407198 -2.827368 -0.418522 0.666453 14.939880 -0.664064 -8.940274 -16.306982 0.000000 -0.000000 0.000000 1.378221 0.430795 9.536534 0.062831 0.570088 -2.823966 -0.342251 -0.312462 3.459469 0.474398 7.873315 -6.893187 -4.226175 1.924051 9.678645 -27.915998 7.206668 -1.106868 -59.334483 -4.951961 9.733546 10.115817 -28.440091 6.886185 -5.067667 -2.671792 -4.723261 27.541642 0.294454 -0.541143 57.225782 7.443617 15.050608 -12.405627 20.023590 -5.729979 6.422504 1.188489 -7.376590 
-0.700119 0.180346 0.989107 84.597614 -1.424559 88.291091 -3.150594 -0.657596 1.338444 -1.296143 -6.359815 8.314720 4.376341 11.880788 -15.423956 0.000000 -0.000000 0.000000 5.155292 0.302265 -2.860626 -0.407737 0.854410 15.011334 -0.730018 -8.764717 -16.505308 0.000000 -0.000000 0.000000 1.430346 0.537974 9.603521 0.042618 0.648266 -2.830643 -0.355182 -0.245183 3.546479 0.470924 7.926192 -6.901530 -4.228643 1.962273 9.802308 -27.928477 7.174346 -1.083418 -59.215157 -4.974496 9.713005 10.127914 -28.593574 6.987848 -5.026040 -2.714793 -4.900374 27.558092 0.338875 -0.472629 57.218114 7.518679 15.062124 -12.442762 19.956776 -5.628922 6.517964 1.248115 -7.424235 
-0.697387 0.178711 0.988650 84.614149 -1.367864 88.206131 -2.986671 -0.766422 0.918162 -1.534845 -6.195582 9.767725 4.367646 11.989089 -15.985688 0.000000 -0.000000 0.000000 5.297760 0.284409 -2.555415 -0.367074 0.875865 15.039677 -0.812670 -8.682696 -16.727988 0.000000 -0.000000 0.000000 1.495468 0.624362 9.835006 0.081067 0.674360 -2.788254 -0.324109 -0.217641 3.643423 0.510578 7.981807 -6.883503 -4.201332 2.042364 9.832069 -27.906010 7.103320 -1.181742 -59.172306 -4.986390 9.674148 10.082899 -28.664386 7.029733 -5.042249 -2.677791 -4.658342 27.543387 0.309763 -0.493720 57.144909 7.425481 14.965422 -12.321341 20.130351 -5.620101 6.530514 1.186021 -7.494010 
-0.695112 0.177332 0.988112 84.500262 -1.334438 88.300848 -2.872291 -1.120103 -0.157458 -1.858561 -5.767076 12.075562 4.424602 12.245053 -16.471263 0.000000 -0.000000 0.000000 5.348460 0.187470 -2.481372 -0.180152 1.124862 15.054373 -0.985654 -8.662962 -16.891844 0.000000 -0.000000 0.000000 1.593786 0.831114 10.042676 0.120360 0.599350 -2.833676 -0.324045 -0.138677 3.728476 0.599509 8.040542 -7.045661 -4.185949 2.274888 9.811303 -27.918073 7.062096 -1.324568 -59.059868 -4.981774 9.631511 10.018854 -28.869226 7.192355 -5.124813 -2.526497 -4.808455 27.397770 0.395431 -0.453040 57.271054 7.461404 14.953491 -12.355538 20.010201 -5.476113 6.537341 0.862259 -7.659815 
-0.692217 0.175803 0.987805 84.477694 -1.340064 88.087276 -2.766991 -1.405136 -1.497293 -2.248948 -5.132018 15.596682 4.204943 12.075134 -16.735801 0.000000 -0.000000 0.000000 5.421288 0.104991 -2.017304 -0.140929 1.173886 15.025157 -1.031397 -8.717041 -17.327766 0.000000 -0.000000 0.000000 1.516334 1.040338 10.545408 0.202646 0.483368 -2.752993 -0.243537 -0.096977 3.821079 0.469801 7.988456 -7.248457 -4.111619 2.300408 9.711495 -27.950801 6.776358 -1.357350 -58.929510 -5.073458 9.556494 10.100266 -28.926204 7.129821 -5.072153 -2.567483 -4.825943 27.571412 0.631232 -0.419426 56.934412 7.486582 14.801162 -12.266282 20.047231 -5.581711 6.533432 0.862590 -7.741676 
-0.688000 0.173709 0.987740 84.235200 -1.409421 87.627424 -2.568286 -2.140443 -3.758071 -2.902457 -3.771139 21.286046 3.460376 11.813842 -16.363419 0.000000 -0.000000 0.000000 5.468413 -0.177852 -1.101341 -0.189067 1.400553 14.815013 -1.219513 -8.461121 -17.577766 0.000000 -0.000000 0.000000 1.417708 1.654505 11.603577 0.230711 0.391891 -2.795141 -0.123120 -0.070047 3.858749 0.361844 8.009949 -7.587077 -3.947580 2.465229 9.702531 -27.911865 6.501239 -1.433917 -58.861126 -5.111076 9.478305 10.179905 -29.227907 7.205042 -5.106887 -2.723851 -4.876320 27.682485 0.670497 -0.534980 56.774404 7.489175 14.686006 -12.170688 19.938417 -5.382821 6.398536 0.879534 -7.718114 
